<?xml version="1.0" encoding="UTF-8" standalone="no"?>
<!-- Created with Inkscape (http://www.inkscape.org/) -->

<svg
   xmlns:dc="http://purl.org/dc/elements/1.1/"
   xmlns:cc="http://creativecommons.org/ns#"
   xmlns:rdf="http://www.w3.org/1999/02/22-rdf-syntax-ns#"
   xmlns:svg="http://www.w3.org/2000/svg"
   xmlns="http://www.w3.org/2000/svg"
   xmlns:sodipodi="http://sodipodi.sourceforge.net/DTD/sodipodi-0.dtd"
   xmlns:inkscape="http://www.inkscape.org/namespaces/inkscape"
   width="744.09448819"
   height="1052.3622047"
   id="svg2"
   version="1.1"
   inkscape:version="0.48.4 r9939"
   sodipodi:docname="orthotab.png">
  <defs
     id="defs4" />
  <sodipodi:namedview
     id="base"
     pagecolor="#ffffff"
     bordercolor="#666666"
     borderopacity="1.0"
     inkscape:pageopacity="0.0"
     inkscape:pageshadow="2"
     inkscape:zoom="0.35"
     inkscape:cx="-66.428571"
     inkscape:cy="453.32952"
     inkscape:document-units="px"
     inkscape:current-layer="layer1"
     showgrid="false"
     inkscape:window-width="1440"
     inkscape:window-height="844"
     inkscape:window-x="-4"
     inkscape:window-y="-4"
     inkscape:window-maximized="1" />
  <metadata
     id="metadata7">
    <rdf:RDF>
      <cc:Work
         rdf:about="">
        <dc:format>image/svg+xml</dc:format>
        <dc:type
           rdf:resource="http://purl.org/dc/dcmitype/StillImage" />
        <dc:title></dc:title>
      </cc:Work>
    </rdf:RDF>
  </metadata>
  <g
     inkscape:label="Layer 1"
     inkscape:groupmode="layer"
     id="layer1">
    <path
       style="fill:none;stroke:#e90000;stroke-width:3.75;stroke-linecap:butt;stroke-linejoin:miter;stroke-opacity:1;stroke-miterlimit:4;stroke-dasharray:none"
       d="m 85.714286,129.50504 c -6.666667,0 -13.333334,0 -20,0 -0.952381,0 -2.183708,-0.67344 -2.857143,0 -0.673435,0.67343 0.673435,2.18371 0,2.85714 -1.34687,1.34687 -4.367416,-1.34687 -5.714286,0 -0.673435,0.67344 0.673435,2.18371 0,2.85715 -0.673435,0.67343 -2.183708,-0.67344 -2.857143,0 -0.673435,0.67343 0.425918,2.0053 0,2.85714 -1.204677,2.40935 -4.509608,3.30493 -5.714285,5.71428 -0.425918,0.85184 0.425917,2.00531 0,2.85715 -1.204678,2.40935 -4.509609,3.30493 -5.714286,5.71428 -0.425918,0.85184 0.301169,1.95364 0,2.85715 -1.34687,4.04061 -3.809524,7.61904 -5.714286,11.42857 -0.952381,1.90476 -2.340642,3.64828 -2.857143,5.71428 -0.461972,1.84789 0.602339,3.90727 0,5.71429 -0.851835,2.5555 -4.509608,3.30493 -5.714285,5.71428 -0.851836,1.70367 0.851835,4.01062 0,5.71429 -0.602339,1.20468 -2.254805,1.65247 -2.857143,2.85714 -0.851836,1.70367 0.602338,3.90727 0,5.71429 -0.673435,2.0203 -2.183708,3.69398 -2.857143,5.71428 -0.646952,1.94086 0,16.31467 0,20 0,0.95238 0,1.90477 0,2.85715 0,0.95238 -0.673435,2.1837 0,2.85714 0.673435,0.67343 2.183708,-0.67344 2.857143,0 0.687517,0.68752 -0.687517,10.74105 0,11.42857 0.673435,0.67344 2.183708,-0.67343 2.857143,0 0.673435,0.67344 -0.673435,2.18371 0,2.85714 0.673435,0.67344 2.183707,-0.67343 2.857142,0 0.673435,0.67344 -0.673435,2.18371 0,2.85715 0.673435,0.67343 1.904762,0 2.857143,0 5.714286,0 11.428572,0 17.142857,0 7.619048,0 15.238096,0 22.857143,0 1.494059,0 10.67731,0.37563 11.428572,0 1.204677,-0.60234 1.652465,-2.25481 2.857143,-2.85715 1.70367,-0.85183 4.367415,1.34687 5.714285,0 0.673435,-0.67343 -0.673435,-2.1837 0,-2.85714 0.673435,-0.67343 2.005308,0.42592 2.857143,0 3.428573,-1.71428 5.142853,-6.85714 8.571433,-8.57143 0.85183,-0.42592 2.1837,0.67344 2.85714,0 0.67343,-0.67343 -0.30117,-1.95363 0,-2.85714 0.67343,-2.02031 2.18371,-3.69398 2.85714,-5.71429 0.30117,-0.9035 -0.30117,-1.95363 0,-2.85714 0.67344,-2.0203 2.18371,-3.69398 2.85714,-5.71428 0.30117,-0.90351 -0.67343,-2.18371 0,-2.85715 0.67344,-0.67343 2.18371,0.67344 2.85715,0 0.67343,-0.67343 0,-1.90476 0,-2.85714 0,-3.80952 0,-7.61905 0,-11.42857 0,-5.71429 0,-11.42857 0,-17.14286 0,-1.28673 0.43476,-7.7019 0,-8.57143 -0.60234,-1.20467 -2.11004,-1.73648 -2.85715,-2.85714 -1.18128,-1.77193 -1.67586,-3.94236 -2.85714,-5.71429 -0.74711,-1.12066 -2.43122,-1.57939 -2.85714,-2.85714 -0.60234,-1.80701 0,-3.80952 0,-5.71428 0,-0.95239 0.42592,-2.00531 0,-2.85715 -0.60234,-1.20467 -1.90476,-1.90476 -2.85714,-2.85714 -0.95239,-0.95238 -1.65247,-2.2548 -2.85715,-2.85714 -0.85183,-0.42592 -2.0053,0.42591 -2.85714,0 -1.204677,-0.60234 -1.994898,-1.82245 -2.857143,-2.85715 -3.903981,-4.68477 -7.619047,-9.52381 -11.428571,-14.28571 z"
       id="path3753"
       inkscape:connector-curvature="0" />
    <path
       style="fill:none;stroke:#00ce00;stroke-width:3.75;stroke-linecap:butt;stroke-linejoin:miter;stroke-opacity:1;stroke-miterlimit:4;stroke-dasharray:none"
       d="m 140,246.6479 c 0,-33.33334 0,-66.66667 0,-100 10.76758,-3.07482 20.71147,-2.85715 31.42857,-2.85715 0.95238,0 1.90476,0 2.85714,0 0.95239,0 2.00531,-0.42591 2.85715,0 0.7586,0.37931 8.19212,7.81283 8.57143,8.57143 0.42591,0.85184 -0.67344,2.18371 0,2.85715 0.67343,0.67343 2.1837,-0.67344 2.85714,0 0.67343,0.67343 -0.42592,2.0053 0,2.85714 0.60234,1.20468 2.2548,1.65246 2.85714,2.85714 0.36936,0.73872 0,15.11771 0,17.14286 0,1.04925 0.11498,11.31359 0,11.42857 -0.67343,0.67343 -2.18371,-0.67344 -2.85714,0 -0.67344,0.67343 0.67343,2.18371 0,2.85714 -0.67344,0.67344 -1.90476,0 -2.85714,0 -4.76191,0 -9.52381,0 -14.28572,0 -23.0662,0 -15.97886,0 -37.14286,0"
       id="path3755"
       inkscape:connector-curvature="0" />
    <path
       style="fill:none;stroke:#00d900;stroke-width:3.75;stroke-linecap:butt;stroke-linejoin:miter;stroke-opacity:1;stroke-miterlimit:4;stroke-dasharray:none"
       d="m 171.42857,195.21933 c 1.90476,3.80952 3.52296,7.77635 5.71429,11.42857 0.69296,1.15493 2.2548,1.65246 2.85714,2.85714 0.42592,0.85184 -0.67344,2.18371 0,2.85714 0.67344,0.67344 2.18371,-0.67343 2.85714,0 0.67344,0.67344 -0.67343,2.18371 0,2.85715 0.67344,0.67343 2.18371,-0.67344 2.85715,0 0.67343,0.67343 -0.42592,2.0053 0,2.85714 0.60233,1.20468 2.2548,1.65246 2.85714,2.85714 0.42592,0.85184 0,1.90476 0,2.85714 0,0.95238 0,1.90477 0,2.85715 0,4.7619 0,9.52381 0,14.28571 0,0.95238 0,1.90476 0,2.85714 0,0.95238 0.95238,2.85715 0,2.85715 -0.95238,0 0,-3.80953 0,-2.85715 0,1.90477 -0.60234,3.90727 0,5.71429 0.42592,1.27775 2.2548,1.65247 2.85714,2.85714 0.42592,0.85184 -0.67343,2.18371 0,2.85715 3.80953,3.80952 2.85714,-4.76191 2.85714,2.85714"
       id="path3757"
       inkscape:connector-curvature="0" />
    <path
       style="fill:none;stroke:#e5ec25;stroke-width:3.75;stroke-linecap:butt;stroke-linejoin:miter;stroke-opacity:1;stroke-miterlimit:4;stroke-dasharray:none"
       d="m 242.85714,152.36218 c 0,10.47619 0,20.95238 0,31.42857 0,18.09524 0,36.19048 0,54.28572 0,5.71428 0,11.42857 0,17.14286 0,0.95238 0.95238,2.85714 0,2.85714 -0.95238,0 0,-1.90476 0,-2.85714"
       id="path3759"
       inkscape:connector-curvature="0" />
    <path
       style="fill:none;stroke:#e5ec25;stroke-width:3.75;stroke-linecap:butt;stroke-linejoin:miter;stroke-opacity:1;stroke-miterlimit:4;stroke-dasharray:none"
       d="m 202.85714,149.50504 c 25.71429,0 51.42857,0 77.14286,0"
       id="path3761"
       inkscape:connector-curvature="0" />
    <path
       style="fill:none;stroke:#0000ad;stroke-width:3.75;stroke-linecap:butt;stroke-linejoin:miter;stroke-opacity:1;stroke-miterlimit:4;stroke-dasharray:none"
       d="m 302.85714,146.6479 c 0,34.28571 0,68.57143 0,102.85714"
       id="path3763"
       inkscape:connector-curvature="0" />
    <path
       style="fill:none;stroke:#0000ad;stroke-width:3.75;stroke-linecap:butt;stroke-linejoin:miter;stroke-opacity:1;stroke-miterlimit:4;stroke-dasharray:none"
       d="m 302.85714,220.93361 c 0,-5.71428 0,-11.42857 0,-17.14286 16.19048,1e-5 32.38095,0 48.57143,0"
       id="path3765"
       inkscape:connector-curvature="0" />
    <path
       style="fill:none;stroke:#0000ad;stroke-width:3.75;stroke-linecap:butt;stroke-linejoin:miter;stroke-opacity:1;stroke-miterlimit:4;stroke-dasharray:none"
       d="m 357.14286,160.93361 c -0.95238,3.80952 -2.08704,7.57806 -2.85715,11.42857 -0.64362,3.21814 0,8.35626 0,11.42857 0,6.66667 0,13.33334 0,20 0,22.85715 0,45.71429 0,68.57143"
       id="path3767"
       inkscape:connector-curvature="0" />
    <path
       style="fill:none;stroke:#c38000;stroke-width:3.75;stroke-linecap:butt;stroke-linejoin:miter;stroke-opacity:1;stroke-miterlimit:4;stroke-dasharray:none"
       d="m 428.57143,158.07647 c -0.46714,19.4293 -12.3227,-0.3563 -17.14286,2.85714 -2.24133,1.49422 -3.80952,3.80952 -5.71428,5.71429 -0.95239,0.95238 -2.25481,1.65246 -2.85715,2.85714 -0.42591,0.85184 0.67344,2.18371 0,2.85714 -0.67343,0.67344 -2.1837,-0.67343 -2.85714,0 -0.19422,0.19422 0.16148,4.58395 0,5.71429 -0.81927,5.73488 -1.45211,11.52272 -2.85714,17.14286 -0.5165,2.066 -1.90476,3.80952 -2.85715,5.71428 0,2.85714 0.56034,5.76977 0,8.57143 -0.83529,4.17647 -4.36741,7.38796 -5.71428,11.42857 -0.56788,1.70363 0,14.37467 0,17.14286 0,1.90476 0,3.80952 0,5.71428 0,0.95238 -0.67344,2.18371 0,2.85715 0.12949,0.12949 12.93858,0 14.28571,0 7.61905,0 15.2381,0 22.85715,0 0.95238,0 2.1837,0.67343 2.85714,0 1.50585,-1.50585 2.18371,-3.69398 2.85714,-5.71429 0.30117,-0.90351 -0.67343,-2.18371 0,-2.85714 1.50585,-1.50585 3.94236,-1.67586 5.71429,-2.85714 1.12066,-0.74711 1.73648,-2.11004 2.85714,-2.85715 1.77192,-1.18128 4.20844,-1.35129 5.71429,-2.85714 0.67343,-0.67344 -0.42592,-2.00531 0,-2.85714 1.20467,-2.40936 4.65317,-3.23835 5.71428,-5.71429 2.37273,-5.53636 2.72585,-11.91309 5.71429,-17.14286 1.05657,-1.849 4.20844,-1.35129 5.71428,-2.85714 0.67344,-0.67343 0,-1.90476 0,-2.85714 0,-3.80953 0,-7.61905 0,-11.42857 0,-0.95238 0,-1.90477 0,-2.85715 0,-0.95238 0.42592,-2.0053 0,-2.85714 -0.73271,-1.46542 -8.20184,-12.67235 -11.42857,-14.28571 -0.85183,-0.42592 -1.90476,0 -2.85714,0 -1.90476,0 -3.96353,0.75032 -5.71429,0 -5.10427,-2.18755 -9.52381,-5.71429 -14.28571,-8.57143 z"
       id="path3769"
       inkscape:connector-curvature="0" />
    <path
       style="fill:none;stroke:#00d2cf;stroke-width:3.75;stroke-linecap:butt;stroke-linejoin:miter;stroke-opacity:1;stroke-miterlimit:4;stroke-dasharray:none"
       d="m 491.42857,158.07647 c 0.95238,3.80952 2.08704,7.57806 2.85714,11.42857 0.51429,2.57143 0,5.94286 0,8.57143 0,6.66666 0,13.33333 0,20 0,19.04762 0,38.09524 0,57.14286"
       id="path3771"
       inkscape:connector-curvature="0" />
    <path
       style="fill:none;stroke:#00d2cf;stroke-width:3.75;stroke-linecap:butt;stroke-linejoin:miter;stroke-opacity:1;stroke-miterlimit:4;stroke-dasharray:none"
       d="m 465.71429,149.50504 c 3.80952,0.95238 7.57806,2.08704 11.42857,2.85714 2.80166,0.56033 5.71428,0 8.57143,0 3.80952,0 7.61904,0 11.42857,0 0.95238,0 1.90476,0 2.85714,0 0.95238,0 2.85714,-0.95238 2.85714,0 0,0.95238 -2.85714,-0.95238 -2.85714,0 0,4.20402 7.45564,2.85715 8.57143,2.85715 0.95238,0 1.90476,0 2.85714,0 0.95238,0 2.18371,-0.67344 2.85714,0 0.67344,0.67343 0.95239,2.85714 0,2.85714 -0.95238,0 -0.95238,-2.85714 0,-2.85714 2.12959,0 3.69398,2.1837 5.71429,2.85714 1.80702,0.60234 3.80952,0 5.71429,0"
       id="path3773"
       inkscape:connector-curvature="0" />
    <path
       style="fill:none;stroke:#cbd717;stroke-width:3.75;stroke-linecap:butt;stroke-linejoin:miter;stroke-opacity:1;stroke-miterlimit:4;stroke-dasharray:none"
       d="m 537.14286,252.36218 c 0,-8.57143 0,-17.14285 0,-25.71428 0,-1.90477 -0.46198,-3.8664 0,-5.71429 0.45952,-1.83811 7.35299,-15.11213 8.57143,-17.14286 1.7667,-2.94451 3.94758,-5.62692 5.71428,-8.57142 1.09567,-1.82611 1.57939,-4.01062 2.85714,-5.71429 1.61625,-2.15499 4.71386,-3.21321 5.71429,-5.71429 1.06112,-2.65279 -1.06112,-5.91863 0,-8.57142 1.00043,-2.50108 4.09804,-3.5593 5.71429,-5.71429 3.29866,-4.39822 2.85714,-6.68642 2.85714,-11.42857 0,-0.95238 0,-1.90476 0,-2.85714 0,-0.95239 -0.42592,-2.00531 0,-2.85715 0.60234,-1.20467 2.43122,-1.57939 2.85714,-2.85714 0.60234,-1.80702 -0.60234,-3.90727 0,-5.71429 0.85184,-2.5555 4.50961,-3.30493 5.71429,-5.71428 0.42591,-0.85184 -0.95238,-2.85714 0,-2.85714 0.95238,0 0,1.90476 0,2.85714 0,4.7619 0,9.52381 0,14.28571 0,3.80953 0,7.61905 0,11.42857 0,0.95238 0,1.90477 0,2.85715 0,0.95238 -0.42592,2.0053 0,2.85714 0.60234,1.20468 2.2548,1.65247 2.85714,2.85714 0.42592,0.85184 0,1.90476 0,2.85715 0,0.95238 0,1.90476 0,2.85714 0,1.49406 -0.37563,10.67731 0,11.42857 0.60234,1.20468 2.11003,1.73648 2.85714,2.85714 1.18129,1.77193 1.3513,4.20844 2.85715,5.71429 0.67343,0.67343 2.1837,-0.67344 2.85714,0 0.67343,0.67343 -0.67344,2.18371 0,2.85714 0.67343,0.67344 2.18371,-0.67343 2.85714,0 0.84538,0.84538 -0.88487,9.65882 0,11.42857 0.60234,1.20468 2.25481,1.65247 2.85714,2.85715 1.14286,2.28571 -1.14285,6.28571 0,8.57142 0.60234,1.20468 2.43123,1.57939 2.85715,2.85715 0.52668,1.58005 0,14.26556 0,17.14285"
       id="path3775"
       inkscape:connector-curvature="0" />
    <path
       style="fill:none;stroke:#cbd717;stroke-width:3.75;stroke-linecap:butt;stroke-linejoin:miter;stroke-opacity:1;stroke-miterlimit:4;stroke-dasharray:none"
       d="m 545.71429,203.79075 c 21.74278,0 28.58444,0 45.71428,0"
       id="path3777"
       inkscape:connector-curvature="0" />
    <path
       style="fill:none;stroke:#dc0000;stroke-width:3.75;stroke-linecap:butt;stroke-linejoin:miter;stroke-opacity:1;stroke-miterlimit:4;stroke-dasharray:none;marker-end:none"
       d="m 637.14286,152.36218 c 0,6.66667 0,13.33334 0,20 0,19.04762 0,38.09524 0,57.14286 0,4.7619 0,9.52381 0,14.28571 0,0.95238 0,1.90477 0,2.85715 0,1.90476 1.90476,5.71428 0,5.71428 -1.90476,0 0,-3.80952 0,-5.71428 17.99469,8.99734 10.75409,8.57143 20,8.57143 7.86633,0 -4.36299,0.30116 11.42857,-2.85715 1.86777,-0.37355 4.01061,0.85184 5.71428,0 0.85184,-0.42592 -0.67343,-2.18371 0,-2.85714 3.80953,-3.80952 2.85715,4.7619 2.85715,-2.85714 0.60234,-1.20468 2.43122,-1.57939 2.85714,-2.85715 3.63512,-10.90537 -7.60988,-0.96154 5.71429,-14.28571 0.67343,-0.67344 -0.95239,2.85714 0,2.85714 0.95238,0 0.67343,-2.18371 0,-2.85714 -0.67344,-0.67344 -2.18371,0.67343 -2.85715,0 -0.67343,-0.67344 0.42592,-2.00531 0,-2.85714 -0.60234,-1.20468 -1.90476,-1.90477 -2.85714,-2.85715 -0.95238,-0.95238 -1.90476,-1.90476 -2.85714,-2.85714 -2.85715,-2.85714 -5.71429,-5.71428 -8.57143,-8.57143 -0.95238,-0.95238 -1.73648,-2.11003 -2.85714,-2.85714 -10.37845,-6.91896 -2.02048,0.83667 -8.57143,-5.71429 -0.95238,-0.95238 -1.57939,-2.43122 -2.85715,-2.85714 -1.30789,-0.43596 -12.69098,0 -14.28571,0 -0.95238,0 -1.90476,0 -2.85714,0 -0.95238,0 -2.85715,-0.95238 -2.85715,0 0,0.95238 2.18371,0.67344 2.85715,0 0.67343,-0.67343 -0.67344,-2.18371 0,-2.85714 0.67343,-0.67344 2.0053,0.42592 2.85714,0 8.40803,-4.20401 -4.4351,-2.85714 8.57143,-2.85714 1.04925,0 11.31359,0.11497 11.42857,0 0.67344,-0.67344 -0.85184,-2.43123 0,-2.85715 1.70367,-0.85183 4.01061,0.85184 5.71429,0 0.85183,-0.42592 -0.67344,-2.18371 0,-2.85714 0.67343,-0.67344 2.1837,0.67343 2.85714,0 0.67343,-0.67344 -0.42592,-2.00531 0,-2.85714 1.20468,-2.40936 4.50961,-3.30493 5.71428,-5.71429 0.0747,-0.14947 0.0747,-8.42195 0,-8.57143 -0.60233,-1.20467 -2.2548,-1.65246 -2.85714,-2.85714 -1.97051,-3.94102 3.46016,-2.55564 -2.85714,-5.71429 -0.85184,-0.42591 -2.00531,0.42592 -2.85714,0 -2.40936,-1.20467 -3.30494,-4.5096 -5.71429,-5.71428 -0.85184,-0.42592 -1.9332,0.23098 -2.85714,0 -6.72642,-1.68161 -13.33333,-3.80953 -20,-5.71429 z"
       id="path3779"
       inkscape:connector-curvature="0" />
  </g>
</svg>
